<?xml version="1.0" standalone="no"?>
<!DOCTYPE svg PUBLIC "-//W3C//DTD SVG 20010904//EN"
 "http://www.w3.org/TR/2001/REC-SVG-20010904/DTD/svg10.dtd">
<svg version="1.0" xmlns="http://www.w3.org/2000/svg"
 width="260.000000pt" height="260.000000pt" viewBox="0 0 260.000000 260.000000"
 preserveAspectRatio="xMidYMid meet">
<metadata>
Created by potrace 1.14, written by Peter Selinger 2001-2017
</metadata>
<g transform="translate(0.000000,260.000000) scale(0.100000,-0.100000)"
fill="#000000" stroke="none">
<path d="M520 1425 l0 -1085 38 23 c20 14 84 54 142 91 l105 67 5 -189 5 -188
298 183 298 184 295 -181 c161 -99 296 -180 299 -180 3 0 5 448 5 995 l0 995
-85 0 -85 0 0 185 0 185 -660 0 -660 0 0 -1085z m1200 840 l0 -125 -455 0
-455 0 0 -735 0 -734 -42 -29 c-24 -16 -62 -41 -85 -56 l-43 -26 0 915 0 915
540 0 540 0 0 -125z"/>
</g>
</svg>
