<?xml version="1.0" standalone="no"?>
<!DOCTYPE svg PUBLIC "-//W3C//DTD SVG 20010904//EN"
 "http://www.w3.org/TR/2001/REC-SVG-20010904/DTD/svg10.dtd">
<svg version="1.0" xmlns="http://www.w3.org/2000/svg"
 width="260.000000pt" height="260.000000pt" viewBox="0 0 260.000000 260.000000"
 preserveAspectRatio="xMidYMid meet">
<metadata>
Created by potrace 1.14, written by Peter Selinger 2001-2017
</metadata>
<g transform="translate(0.000000,260.000000) scale(0.100000,-0.100000)"
fill="#000000" stroke="none">
<path d="M520 2468 c-1 -24 -1 -510 -1 -1082 0 -765 3 -1042 11 -1050 8 -8 11
-8 8 2 -2 7 11 20 27 30 17 9 33 22 37 27 5 7 8 7 8 0 0 -7 3 -7 8 0 8 11 69
55 76 55 2 0 28 16 57 36 l54 36 3 -191 c1 -105 4 -191 7 -191 2 0 53 30 112
66 59 37 113 67 120 67 7 0 10 3 8 7 -2 3 17 17 43 31 25 13 55 32 66 41 11
10 29 21 40 24 12 4 23 10 26 13 12 16 108 71 123 71 10 0 16 6 15 13 -2 7 6
12 19 11 12 0 21 2 20 5 -5 16 24 6 80 -28 51 -31 60 -40 50 -51 -10 -12 -9
-12 5 -1 18 14 42 6 32 -10 -3 -5 -2 -9 3 -8 21 4 34 -2 27 -13 -5 -7 -3 -8 5
-3 8 4 25 -1 42 -14 15 -11 33 -21 38 -21 6 0 14 -7 19 -16 5 -9 13 -17 18
-17 5 -1 8 -4 7 -7 -1 -3 8 -7 19 -7 12 -1 24 -6 27 -11 3 -5 24 -19 46 -31
22 -12 49 -27 60 -34 88 -55 114 -75 108 -81 -4 -4 -1 -5 7 -1 13 5 15 132 15
1003 l0 997 -85 5 -85 5 -2 95 c-1 52 -2 134 -2 183 l-1 87 -660 0 -660 0 0
-42z m1199 -203 l-1 -125 -454 0 -454 0 0 -577 c-1 -318 -2 -650 -3 -737 l-2
-160 -82 -53 -82 -52 0 914 1 914 539 0 540 0 -2 -124z"/>
</g>
</svg>
