<?xml version="1.0" standalone="no"?>
<!DOCTYPE svg PUBLIC "-//W3C//DTD SVG 20010904//EN"
 "http://www.w3.org/TR/2001/REC-SVG-20010904/DTD/svg10.dtd">
<svg version="1.0" xmlns="http://www.w3.org/2000/svg"
 width="260.000000pt" height="260.000000pt" viewBox="0 0 260.000000 260.000000"
 preserveAspectRatio="xMidYMid meet">
<metadata>
Created by potrace 1.14, written by Peter Selinger 2001-2017
</metadata>
<g transform="translate(0.000000,260.000000) scale(0.100000,-0.100000)"
fill="#000000" stroke="none">
<path d="M590 2381 c-4 -880 2 -1957 10 -1965 7 -7 10 -6 10 1 0 6 17 22 38
34 20 13 39 26 42 30 3 4 12 9 20 11 8 2 21 11 28 21 11 14 17 15 28 6 11 -9
13 -9 9 2 -6 17 61 63 77 53 6 -4 8 -3 5 3 -4 6 -1 16 6 21 16 13 19 -37 16
-283 -1 -47 1 -89 5 -92 3 -3 24 6 46 21 22 15 45 24 51 21 5 -4 8 -1 7 7 -2
7 3 12 10 10 6 -1 12 2 12 7 0 8 92 67 98 63 1 -1 11 6 22 16 11 10 33 25 48
33 15 8 33 20 40 27 8 7 18 9 24 6 6 -4 8 -3 5 3 -3 5 7 17 24 27 16 9 29 14
29 10 0 -4 6 0 13 11 9 11 19 15 27 10 8 -5 11 -4 6 3 -8 14 30 36 46 26 6 -4
8 -3 4 4 -3 6 -1 14 4 17 13 8 70 -14 70 -26 0 -5 7 -9 16 -9 9 0 12 -5 8 -12
-4 -7 -4 -10 1 -6 11 10 47 -11 40 -23 -4 -5 -3 -8 2 -7 17 4 53 -14 47 -24
-4 -7 -2 -8 5 -4 14 9 41 -11 37 -27 -1 -7 -1 -9 1 -4 7 12 22 8 56 -15 18
-13 34 -25 37 -28 3 -3 17 -11 32 -19 15 -8 25 -19 21 -24 -3 -6 -1 -7 4 -4
10 7 146 -76 139 -84 -3 -2 5 -5 17 -5 l22 -2 -3 924 -2 924 -85 0 c-47 0 -85
3 -86 8 0 4 -1 86 -2 182 l-2 175 -592 1 -593 1 0 -56z m300 -76 c0 -7 3 -7 8
0 11 16 85 13 100 -5 11 -13 11 -13 6 2 -5 14 0 16 28 15 18 -1 39 -9 46 -17
10 -13 11 -13 6 2 -5 14 0 16 28 15 18 -1 39 -9 46 -17 10 -13 11 -13 6 2 -5
14 0 16 28 15 18 -1 39 -9 46 -17 11 -13 11 -13 7 1 -5 13 19 15 202 15 l208
-1 2 -122 2 -123 -390 0 -389 0 0 -47 c0 -27 -1 -323 -1 -659 l0 -612 -42 -28
c-23 -16 -54 -35 -69 -43 -16 -7 -28 -17 -28 -22 0 -5 -7 -9 -15 -9 -13 0 -15
102 -15 828 0 456 2 831 5 833 9 10 175 4 175 -6z"/>
</g>
</svg>
