<?xml version="1.0" standalone="no"?>
<!DOCTYPE svg PUBLIC "-//W3C//DTD SVG 20010904//EN"
 "http://www.w3.org/TR/2001/REC-SVG-20010904/DTD/svg10.dtd">
<svg version="1.0" xmlns="http://www.w3.org/2000/svg"
 width="260.000000pt" height="260.000000pt" viewBox="0 0 260.000000 260.000000"
 preserveAspectRatio="xMidYMid meet">
<metadata>
Created by potrace 1.14, written by Peter Selinger 2001-2017
</metadata>
<g transform="translate(0.000000,260.000000) scale(0.100000,-0.100000)"
fill="#000000" stroke="none">
<path d="M1202 2494 c-31 -18 -68 -38 -82 -44 -13 -6 -27 -14 -30 -18 -7 -9
-36 -27 -80 -49 -19 -9 -41 -23 -48 -30 -7 -7 -20 -13 -28 -13 -8 0 -14 -4
-14 -8 0 -4 -12 -13 -27 -19 -16 -7 -46 -24 -68 -38 -22 -14 -52 -31 -67 -37
-16 -7 -28 -16 -28 -20 0 -4 -4 -8 -9 -8 -8 0 -68 -34 -156 -87 -11 -7 -27
-16 -35 -20 -28 -13 -225 -132 -241 -145 -23 -19 -49 -73 -49 -102 0 -45 29
-100 65 -123 28 -19 637 -380 730 -433 17 -10 74 -43 127 -74 100 -60 160 -74
193 -46 8 7 15 9 15 5 0 -5 8 -2 18 6 9 8 34 24 55 34 20 11 37 23 37 27 0 5
6 8 14 8 8 0 21 6 28 13 7 7 28 20 46 28 17 7 32 17 32 21 0 5 4 8 9 8 11 0
133 71 141 81 3 4 21 14 40 23 19 9 49 25 65 35 17 11 48 29 70 41 22 12 42
25 45 29 3 3 19 13 35 22 43 23 79 43 85 49 3 3 26 16 53 30 26 13 47 28 47
33 0 4 5 5 10 2 6 -3 10 -2 10 3 0 6 10 12 23 16 34 9 98 66 113 102 39 93 6
147 -146 232 -19 11 -208 121 -420 244 -212 124 -400 233 -418 242 -45 23 -93
17 -160 -20z"/>
<path d="M355 1460 c-59 -35 -107 -78 -100 -90 3 -5 2 -11 -3 -14 -15 -9 -13
-71 4 -108 15 -33 79 -88 103 -88 5 0 11 -4 13 -8 2 -5 23 -20 48 -34 25 -14
61 -34 81 -46 20 -11 47 -26 60 -34 13 -7 26 -15 29 -18 7 -7 97 -60 187 -111
17 -10 50 -29 72 -43 22 -15 45 -26 51 -26 5 0 10 -4 10 -9 0 -5 12 -14 28
-20 26 -10 82 -41 92 -51 6 -6 42 -26 85 -49 16 -9 32 -19 35 -22 13 -15 106
-61 132 -64 44 -6 73 8 301 143 117 68 273 161 347 205 74 44 153 90 175 102
222 126 257 160 251 242 -4 58 -28 89 -105 137 l-62 39 -42 -24 c-23 -12 -118
-69 -212 -124 -93 -56 -226 -134 -295 -175 -69 -40 -169 -99 -223 -131 -54
-33 -107 -59 -118 -59 -18 0 -58 18 -69 31 -3 3 -25 17 -50 31 -25 14 -61 34
-81 46 -20 11 -47 26 -60 34 -13 7 -26 15 -29 18 -3 3 -14 10 -25 17 -116 69
-159 93 -165 93 -4 0 -17 9 -30 20 -13 11 -29 20 -37 20 -7 0 -13 4 -13 9 0 5
-15 14 -32 22 -18 7 -35 16 -38 20 -3 3 -21 14 -40 24 -19 9 -42 23 -50 30 -8
7 -40 25 -70 41 -30 16 -60 35 -68 42 -19 17 -30 15 -87 -18z"/>
<path d="M356 915 c-52 -29 -118 -85 -100 -85 3 0 1 -6 -5 -14 -14 -16 -9 -93
7 -123 16 -28 83 -77 157 -113 17 -8 36 -21 43 -27 7 -7 20 -13 28 -13 8 0 14
-4 14 -9 0 -5 10 -13 23 -17 12 -4 24 -10 27 -14 3 -4 23 -17 45 -29 22 -11
58 -32 80 -46 22 -14 49 -29 60 -35 11 -5 38 -21 60 -35 22 -14 51 -30 65 -37
14 -7 27 -15 30 -19 3 -3 25 -16 50 -30 25 -13 47 -26 50 -29 3 -3 16 -11 29
-18 71 -40 99 -57 126 -73 17 -11 37 -22 45 -25 8 -4 22 -13 31 -20 8 -8 36
-17 61 -20 53 -7 51 -8 273 124 88 52 174 103 190 112 159 92 554 328 568 340
33 27 51 86 42 136 -5 32 -54 94 -73 94 -5 0 -12 4 -14 8 -1 4 -20 18 -41 30
l-39 22 -206 -121 c-114 -67 -305 -180 -424 -251 -120 -70 -228 -132 -240
-137 -17 -6 -34 -3 -63 13 -22 11 -42 24 -45 27 -5 6 -35 22 -90 51 -14 7 -27
15 -30 18 -8 8 -42 28 -80 47 -19 9 -37 20 -40 23 -6 8 -69 45 -195 114 -10 6
-25 17 -33 24 -7 6 -20 12 -28 12 -8 0 -14 4 -14 10 0 5 -11 12 -25 16 -14 3
-25 10 -25 14 0 4 -12 13 -27 19 -29 12 -40 19 -108 62 -94 61 -94 61 -159 24z"/>
</g>
</svg>
