<?xml version="1.0" standalone="no"?>
<!DOCTYPE svg PUBLIC "-//W3C//DTD SVG 20010904//EN"
 "http://www.w3.org/TR/2001/REC-SVG-20010904/DTD/svg10.dtd">
<svg version="1.0" xmlns="http://www.w3.org/2000/svg"
 width="260.000000pt" height="260.000000pt" viewBox="0 0 260.000000 260.000000"
 preserveAspectRatio="xMidYMid meet">
<metadata>
Created by potrace 1.14, written by Peter Selinger 2001-2017
</metadata>
<g transform="translate(0.000000,260.000000) scale(0.100000,-0.100000)"
fill="#000000" stroke="none">
<path d="M866 2331 c-215 -107 -394 -199 -397 -204 -3 -5 -10 -9 -15 -9 -15
-1 -79 -32 -82 -40 -2 -5 -12 -8 -23 -8 -10 0 -19 -5 -19 -11 0 -5 -5 -7 -10
-4 -6 3 -10 1 -10 -4 0 -6 -3 -10 -8 -9 -10 2 -66 -25 -74 -37 -5 -6 -8 -6 -8
0 0 7 -3 7 -8 0 -4 -5 -24 -18 -44 -27 -21 -10 -49 -35 -64 -57 -22 -34 -25
-47 -20 -84 9 -60 38 -89 147 -145 81 -42 571 -292 914 -466 151 -77 171 -77
336 6 68 34 126 66 127 70 2 4 8 6 13 2 5 -3 9 0 9 6 0 6 5 8 10 5 6 -3 10 -1
10 4 0 6 9 11 19 11 11 0 26 6 33 13 7 7 93 52 191 101 97 48 180 92 183 97 3
5 9 7 14 4 4 -3 13 2 20 10 7 8 16 12 21 9 5 -3 9 0 9 7 0 7 3 9 7 6 3 -4 11
-3 18 3 6 5 78 43 159 84 82 41 157 84 167 95 37 40 51 115 27 139 -7 7 -9 12
-4 12 4 0 -6 13 -21 29 -17 17 -247 139 -587 310 -511 257 -563 282 -604 279
-37 -1 -125 -41 -436 -197z"/>
<path d="M206 1454 c-38 -20 -74 -41 -80 -48 -43 -45 -54 -87 -36 -140 10 -32
51 -76 70 -76 6 0 10 -4 10 -9 0 -7 28 -19 47 -19 3 0 9 -4 12 -9 3 -5 78 -45
166 -89 88 -43 181 -91 208 -106 26 -15 47 -25 47 -21 0 3 8 -1 18 -10 10 -10
22 -14 25 -10 4 3 7 1 7 -6 0 -7 4 -10 9 -6 5 3 12 1 16 -5 3 -5 86 -49 183
-97 97 -48 179 -91 180 -95 2 -4 10 -8 19 -8 8 0 21 -7 30 -15 8 -8 19 -13 24
-10 5 4 9 1 9 -5 0 -6 5 -8 10 -5 6 3 10 2 10 -2 0 -16 89 -42 131 -38 40 4
82 25 909 448 209 106 291 156 288 176 0 3 1 8 2 11 7 20 9 50 5 76 -6 34 -43
84 -63 84 -7 0 -12 3 -12 8 0 4 -27 20 -60 35 l-60 29 -193 -98 c-105 -53
-232 -118 -282 -144 -168 -88 -530 -268 -545 -272 -16 -3 -290 130 -302 147
-5 7 -8 7 -8 0 0 -6 -3 -6 -8 1 -4 5 -103 58 -221 117 -118 59 -221 113 -228
119 -7 6 -13 7 -13 3 0 -4 -6 -3 -12 3 -18 14 -226 122 -235 122 -5 -1 -39
-17 -77 -36z"/>
<path d="M197 907 c-82 -45 -110 -78 -115 -134 -4 -36 34 -113 54 -113 7 0 14
-3 16 -8 2 -4 35 -23 73 -42 39 -19 86 -45 106 -57 20 -12 40 -19 43 -16 3 4
6 0 6 -7 0 -7 3 -11 6 -7 3 3 23 -4 43 -17 20 -13 113 -61 206 -106 94 -46
172 -87 173 -92 2 -4 8 -6 13 -2 5 3 9 1 9 -4 0 -9 37 -25 53 -23 4 1 7 -4 7
-10 0 -5 4 -8 9 -5 5 4 11 3 13 -2 1 -4 79 -46 171 -92 228 -114 219 -113 430
-6 89 46 333 170 542 276 209 106 395 204 413 217 63 47 77 108 41 173 -17 30
-40 48 -101 79 l-80 41 -181 -94 c-539 -278 -834 -425 -847 -422 -31 7 -80 31
-80 39 0 4 -4 5 -10 2 -5 -3 -10 -1 -10 5 0 6 -4 8 -10 5 -5 -3 -10 -1 -10 5
0 6 -4 8 -10 5 -5 -3 -10 -1 -10 5 0 6 -4 9 -9 5 -5 -3 -12 -1 -15 4 -4 5 -90
51 -194 103 -103 51 -189 96 -190 101 -2 4 -8 5 -13 1 -5 -3 -9 0 -9 6 0 6 -5
8 -10 5 -5 -3 -10 -2 -10 4 0 6 -12 14 -27 17 -15 4 -32 11 -38 16 -9 8 -363
188 -368 188 -1 0 -37 -19 -80 -43z"/>
</g>
</svg>
